# xmcd
#
# Track frame offsets:
#	150
#	15373
#	29314
#	45008
#	57576
#	77335
#	90768
#	109477
#	123159
#	136895
#
# Disc length: 2071 seconds
# Revision: 0
# Processed by: cddbd v1.5.2PL0 Copyright (c) Steve Scherf et al.
# Submitted via: dBpowerAMP V12.0
#
DISCID=6708150a
DTITLE=Backline - Salem Town
DYEAR=2019
DGENRE=Bluegrass
TTITLE0=Good Cause I'm Gone
TTITLE1=Better Days
TTITLE2=He's The One
TTITLE3=Strange Woman
TTITLE4=Trying To Move On
TTITLE5=Heartbreak
TTITLE6=Salem Town
TTITLE7=Won't You Please Come Back To Me
TTITLE8=Gonna Move
TTITLE9=Rose Marie
EXTD=
EXTT0=
EXTT1=
EXTT2=
EXTT3=
EXTT4=
EXTT5=
EXTT6=
EXTT7=
EXTT8=
EXTT9=
PLAYORDER=
